{"title":"The Hangover Part 3 2013 TS AAC x264-SSDD","uid":8530130,"size":471367264,"categoryP":"video","categoryS":"movies","magnet":"?xt=urn:btih:d4f9c447e5ff3664d9873b15c1bc84bf16e9b195&amp;dn=The+Hangover+Part+3+2013+TS+AAC+x264-SSDD&amp;tr=udp%3A%2F%2Ftracker.openbittorrent.com%3A80&amp;tr=udp%3A%2F%2Fopen.demonii.com%3A1337&amp;tr=udp%3A%2F%2Ftracker.coppersurfer.tk%3A6969&amp;tr=udp%3A%2F%2Fexodus.desync.com%3A6969","seeders":1,"leechers":0,"uploader":"R0thschild","files":2,"time":1370125814,"description":"              ***********************************************\n\n                PublicHash - Largest Bittorrent Community\n      \n                         &lt;a href=&quot; http://publichash.com/&quot; rel=&quot;nofollow&quot; target=&quot;_NEW&quot;&gt; http://publichash.com/&lt;/a&gt;\n    \n              ***********************************************\nIMDB Link - http://www.imdb.com/title/tt1951261/\n\nSource - The Hangover Part 3 2013 TS Xvid Mp3-SUFFiCE (Thumbs Up   Respect)\n\nNOTES - Enjoy.  Has some flickering and does go a little out of focus here and there, but more than watchable.  Did try and sort the flickering but didnt seem to make much difference using a deflicker so decided to leave it as is, just added some sharpening.\n\nGeneral\nComplete name                            : The Hangover Part 3 2013 TS AAC x264-SSDD.mp4\nFormat                                   : MPEG-4\nFormat profile                           : Base Media\nCodec ID                                 : isom\nFile size                                : 450 MiB\nDuration                                 : 1h 34mn\nOverall bit rate mode                    : Variable\nOverall bit rate                         : 662 Kbps\n\nVideo\nID                                       : 1\nFormat                                   : AVC\nFormat/Info                              : Advanced Video Codec\nFormat profile                           : &lt;a class=&quot;__cf_email__&quot; href=&quot;/cdn-cgi/l/email-protection&quot; data-cfemail=&quot;c58daca2ad8589f1ebf4&quot;&gt;[email&amp;#160;protected]&lt;/a&gt;&lt;script cf-hash='f9e31' type=&quot;text/javascript&quot;&gt;\n/* &lt;![CDATA[ */!function(){try{var t=&quot;currentScript&quot;in document?document.currentScript:function(){for(var t=document.getElementsByTagName(&quot;script&quot;),e=t.length;e--;)if(t[e].getAttribute(&quot;cf-hash&quot;))return t[e]}();if(t&amp;&amp;t.previousSibling){var e,r,n,i,c=t.previousSibling,a=c.getAttribute(&quot;data-cfemail&quot;);if(a){for(e=&quot;&quot;,r=parseInt(a.substr(0,2),16),n=2;a.length-n;n+=2)i=parseInt(a.substr(n,2),16)^r,e+=String.fromCharCode(i);e=document.createTextNode(e),c.parentNode.replaceChild(e,c)}}}catch(u){}}();/* ]]&gt; */&lt;/script&gt;\nFormat settings, CABAC                   : Yes\nFormat settings, ReFrames                : 4 frames\nCodec ID                                 : avc1\nCodec ID/Info                            : Advanced Video Coding\nDuration                                 : 1h 34mn\nBit rate                                 : 594 Kbps\nMaximum bit rate                         : 1 585 Kbps\nWidth                                    : 720 pixels\nHeight                                   : 274 pixels\nDisplay aspect ratio                     : 2.628\nFrame rate mode                          : Constant\nFrame rate                               : 25.857 fps\nColor space                              : YUV\nChroma subsampling                       : 4:2:0\nBit depth                                : 8 bits\nScan type                                : Progressive\nBits/(Pixel*Frame)                       : 0.116\nStream size                              : 403 MiB (90%)\nWriting library                          : x264 core 130 r2273 b3065e6\n\nAudio\nID                                       : 2\nFormat                                   : AAC\nFormat/Info                              : Advanced Audio Codec\nFormat profile                           : LC\nCodec ID                                 : 40\nDuration                                 : 1h 34mn\nBit rate mode                            : Variable\nBit rate                                 : 64.0 Kbps\nMaximum bit rate                         : 67.6 Kbps\nChannel(s)                               : 2 channels\nChannel positions                        : Front: L R\nSampling rate                            : 48.0 KHz\nCompression mode                         : Lossy\nStream size                              : 43.5 MiB (10%)\n\nGallery: &lt;a href=&quot;\nhttp://imgsure.com/?g=434064&quot; rel=&quot;nofollow&quot; target=&quot;_NEW&quot;&gt;\nhttp://imgsure.com/?g=434064&lt;/a&gt;","torrent":{"xt":"urn:btih:d4f9c447e5ff3664d9873b15c1bc84bf16e9b195","amp;dn":"The+Hangover+Part+3+2013+TS+AAC+x264-SSDD","amp;tr":["udp%3A%2F%2Ftracker.openbittorrent.com%3A80","udp%3A%2F%2Fopen.demonii.com%3A1337","udp%3A%2F%2Ftracker.coppersurfer.tk%3A6969","udp%3A%2F%2Fexodus.desync.com%3A6969"],"infoHash":"d4f9c447e5ff3664d9873b15c1bc84bf16e9b195","infoHashBuffer":{"type":"Buffer","data":[212,249,196,71,229,255,54,100,217,135,59,21,193,188,132,191,22,233,177,149]},"announce":[],"urlList":[]}}